<svg xmlns="http://www.w3.org/2000/svg" xmlns:xlink="http://www.w3.org/1999/xlink" viewBox="0 0 48.07 48.07">
  <defs>
    <linearGradient id="a" x1="3.22" y1="36.06" x2="44.86" y2="12.02" gradientUnits="userSpaceOnUse">
      <stop offset="0" stop-color="#32fdef"/>
      <stop offset=".27" stop-color="#2ffcb1"/>
      <stop offset=".61" stop-color="#2cfa6b"/>
      <stop offset=".85" stop-color="#2af93f"/>
      <stop offset=".98" stop-color="#29f92e"/>
    </linearGradient>
    <linearGradient id="b" x1="17.07" y1="28.01" x2="30.18" y2="20.44" xlink:href="#a"/>
  </defs>
  <g data-name="Layer 2">
    <g data-name="Layer 1">
      <circle cx="24.04" cy="24.04" r="24.04" style="fill:url(#a)"/>
      <path d="M24 10.72s2.22.45 7.05 1.69c4.56 1.18 6.16 1.65 6.16 1.65s.23 4.7-1.83 13.21C33.75 34.14 27.52 37.94 24 40.1c-3.48-2.16-9.71-6-11.38-12.83-2.07-8.51-1.84-13.21-1.84-13.21s1.6-.47 6.16-1.65c4.87-1.24 7.06-1.69 7.06-1.69Z" style="fill:#191919"/>
      <path style="fill:url(#b)" d="m28.95 18.31-4.91 5.46h4.37l-8.75 8.74 3.28-7.1h-3.82l4.37-7.1h5.46z"/>
    </g>
  </g>
</svg>
